<?xml version="1.0" encoding="UTF-8"?>
<svg id="Logos" xmlns="http://www.w3.org/2000/svg" viewBox="0 0 1920 484.83">
  <defs>
    <style>
      .cls-1 {
        fill: #fff;
      }
    </style>
  </defs>
  <g>
    <path class="cls-1" d="M158.65,210.82h-87.3c-22.26,0-39.44-4.43-51.53-13.3-12.09-8.86-18.14-21.44-18.14-37.72s6.02-28.98,18.07-37.8c12.04-8.82,29.24-13.22,51.6-13.22h87.3v24.14h-83.68c-11.56,0-20.5,2.41-26.81,7.23-6.31,4.82-9.47,11.52-9.47,20.09s3.15,15.27,9.47,20.09c6.31,4.82,15.25,7.23,26.81,7.23h50.73v-16.62h-50.73v-20.09h83.68v59.98Z"/>
    <path class="cls-1" d="M177.56,108.82h35.7v38.16h79.2v-38.16h35.84v102.04h-35.84v-39.02h-79.2v39.02h-35.7v-102.04Z"/>
    <path class="cls-1" d="M493.58,198.69c-12.05,9.06-29.29,13.59-51.74,13.59h-32.52c-22.45,0-39.67-4.53-51.67-13.59-12-9.06-17.99-22.02-17.99-38.88s6-29.94,17.99-38.95c12-9.01,29.22-13.51,51.67-13.51h32.52c22.45,0,39.7,4.51,51.74,13.51,12.04,9.01,18.07,21.99,18.07,38.95s-6.02,29.82-18.07,38.88ZM385.98,180.33c6.12,4.72,15.01,7.08,26.67,7.08h26.02c11.75,0,20.69-2.36,26.81-7.08,6.12-4.72,9.18-11.56,9.18-20.52s-3.08-15.8-9.25-20.52c-6.17-4.72-15.08-7.08-26.74-7.08h-26.02c-11.66,0-20.55,2.36-26.67,7.08-6.12,4.72-9.18,11.56-9.18,20.52s3.06,15.8,9.18,20.52Z"/>
    <path class="cls-1" d="M833.65,108.8v24.85h-57.51v77.2h-35.84v-77.2h-160.54c-9.26,0-13.89,2.8-13.89,8.39,0,2.5,1.2,4.47,3.63,5.93,2.4,1.44,5.83,2.17,10.27,2.17h44.94c14.94,0,26.32,2.6,34.18,7.8,7.84,5.2,11.78,12.71,11.78,22.54s-3.94,17.34-11.78,22.56c-7.86,5.2-19.25,7.8-34.18,7.8h-95.84v-24.87h90.77c4.53,0,8-.77,10.4-2.31,2.4-1.56,3.63-3.72,3.63-6.52s-1.24-4.94-3.68-6.5c-2.46-1.54-5.91-2.31-10.34-2.31h-44.94c-14.84,0-26.19-2.52-34.05-7.59-7.84-5.06-11.78-12.41-11.78-22.05s3.94-17.02,11.78-22.19c7.86-5.14,19.21-7.72,34.05-7.72h258.96Z"/>
    <path class="cls-1" d="M850.53,108.79h14.45v71.54c0,6.36,2.17,11.01,6.5,13.95,4.34,2.94,11.22,4.41,20.67,4.41h85.56v12.14h-86c-9.83,0-17.78-1.01-23.85-3.04-6.07-2.02-10.48-5.23-13.22-9.61-2.75-4.38-4.12-10.19-4.12-17.42v-71.98Z"/>
    <path class="cls-1" d="M1051.43,108.79h28.62l65.76,102.04h-16.04l-14.02-21.97h-100.59l-13.88,21.97h-15.61l65.76-102.04ZM1108.38,177.3l-36.28-56.8h-13.3l-36.42,56.8h86Z"/>
    <path class="cls-1" d="M1161.56,108.79h92.65c13.3,0,23.51,2.72,30.64,8.17,7.13,5.45,10.69,13.23,10.69,23.34s-3.57,17.9-10.69,23.34c-7.13,5.45-17.34,8.17-30.64,8.17h-78.19v39.02h-14.45v-102.04ZM1254.21,160.24c8.58,0,15.15-1.73,19.73-5.2,4.58-3.47,6.87-8.38,6.87-14.74s-2.29-11.25-6.87-14.67c-4.58-3.42-11.15-5.13-19.73-5.13h-78.19v39.75h78.19Z"/>
  </g>
  <path class="cls-1" d="M1136.04,479.76l-.75-.75c93.23-13.59,172.98-33.29,243.69-60.19,18.27.01,75.12.02,95.31.02,69.58,0,78.05-.11,80.53-.21,44.84-1.24,83.31-6.77,114.31-16.46,49.94-15.59,79.01-41.71,86.42-77.63,3.52-21.19-.85-54.92-41.58-95.67l-75.69-75.67c1.86-20.37,1.08-41.34-2.32-62.37-4.52-28.49-14.47-58.75-29.57-89.98h13.29l242.33,242.32,3.63,3.65c25.45,26.39,41.83,51.97,48.69,75.99,7.97,27.91,2.91,53.94-15.03,77.36-25.01,30.68-66.5,51.56-130.52,65.66-34.79,7.55-73.44,11.95-118.14,13.46-9.48.29-19.34.45-29.3.47h0-485.31Z"/>
  <path class="cls-1" d="M1485.94.85h84.12l1.89,3.56c13.19,24.9,22.83,50.13,28.65,74.97,3.37,14.36,5.42,28.54,6.1,42.23L1485.94.85Z"/>
  <path class="cls-1" d="M1559.94,261.52c-2.29-5.58-5.87-11.33-10.69-17.16h.61l-6.79-6.87L1306.43.85h133.68l164.06,164.06c-5.52,34.15-20.4,66.63-44.24,96.61Z"/>
  <path class="cls-1" d="M1451.89,386.42c40.65-21.22,76.61-46.33,104.37-72.92,38.18-36.57,63.47-77.37,75.2-121.32l59.69,59.66c26.09,25.77,37.01,50.12,31.6,70.43-5.92,22.18-31.9,40.84-71.29,51.21l-.14.03c-28.02,7.71-58.97,11.76-97.38,12.73-4.7.11-9.32.17-13.75.17h-88.29Z"/>
  <path class="cls-1" d="M1075.11,418.82h196.96c-48.12,12.6-100.08,22.61-158.29,30.49l-7.21.97-31.47-31.46Z"/>
  <path class="cls-1" d="M1042.7,386.42l-60.9-60.89h481.28v-.08c10.82-.21,20.78-.9,30.2-2.12-27.82,19.87-58.88,37.09-94.68,52.52-9.51,4.14-17.88,7.59-25.59,10.57h-330.31Z"/>
  <polygon class="cls-1" points="99.39 419.12 1028.19 419.12 1087.93 478.85 159.16 478.88 99.39 419.12"/>
  <polygon class="cls-1" points="66.25 385.96 6.49 326.21 935.31 326.22 995.05 385.96 66.25 385.96"/>
</svg>