<?xml version="1.0" encoding="UTF-8"?>
<svg id="Logos" xmlns="http://www.w3.org/2000/svg" viewBox="0 0 1920 487.94">
  <defs>
    <style>
      .cls-1 {
        fill: #a85fed;
      }

      .cls-2 {
        fill: #99b9ff;
      }

      .cls-3 {
        fill: #f3f2f8;
      }
    </style>
  </defs>
  <g>
    <path class="cls-3" d="M158.65,214.48h-87.3c-22.26,0-39.44-4.43-51.53-13.3-12.09-8.86-18.14-21.44-18.14-37.72s6.02-28.98,18.07-37.8c12.04-8.82,29.24-13.22,51.6-13.22h87.3v24.14h-83.68c-11.56,0-20.5,2.41-26.81,7.23-6.31,4.82-9.47,11.52-9.47,20.09s3.15,15.27,9.47,20.09c6.31,4.82,15.25,7.23,26.81,7.23h50.73v-16.62h-50.73v-20.09h83.68v59.98Z"/>
    <path class="cls-3" d="M177.56,112.48h35.7v38.16h79.2v-38.16h35.84v102.04h-35.84v-39.02h-79.2v39.02h-35.7v-102.04Z"/>
    <path class="cls-3" d="M493.58,202.35c-12.05,9.06-29.29,13.59-51.74,13.59h-32.52c-22.45,0-39.67-4.53-51.67-13.59-12-9.06-17.99-22.02-17.99-38.88s6-29.94,17.99-38.95c12-9.01,29.22-13.51,51.67-13.51h32.52c22.45,0,39.7,4.51,51.74,13.51,12.04,9.01,18.07,21.99,18.07,38.95s-6.02,29.82-18.07,38.88ZM385.98,183.99c6.12,4.72,15.01,7.08,26.67,7.08h26.02c11.75,0,20.69-2.36,26.81-7.08,6.12-4.72,9.18-11.56,9.18-20.52s-3.08-15.8-9.25-20.52c-6.17-4.72-15.08-7.08-26.74-7.08h-26.02c-11.66,0-20.55,2.36-26.67,7.08-6.12,4.72-9.18,11.56-9.18,20.52s3.06,15.8,9.18,20.52Z"/>
    <path class="cls-3" d="M833.65,112.45v24.85h-57.51v77.2h-35.84v-77.2h-160.54c-9.26,0-13.89,2.8-13.89,8.39,0,2.5,1.2,4.47,3.63,5.93,2.4,1.44,5.83,2.17,10.27,2.17h44.94c14.94,0,26.32,2.6,34.18,7.8,7.84,5.2,11.78,12.71,11.78,22.54s-3.94,17.34-11.78,22.56c-7.86,5.2-19.25,7.8-34.18,7.8h-95.84v-24.87h90.77c4.53,0,8-.77,10.4-2.31,2.4-1.56,3.63-3.72,3.63-6.52s-1.24-4.94-3.68-6.5c-2.46-1.54-5.91-2.31-10.34-2.31h-44.94c-14.84,0-26.19-2.52-34.05-7.59-7.84-5.06-11.78-12.41-11.78-22.05s3.94-17.02,11.78-22.19c7.86-5.14,19.21-7.72,34.05-7.72h258.96Z"/>
    <path class="cls-3" d="M850.53,112.45h14.45v71.54c0,6.36,2.17,11.01,6.5,13.95,4.34,2.94,11.22,4.41,20.67,4.41h85.56v12.14h-86c-9.83,0-17.78-1.01-23.85-3.04-6.07-2.02-10.48-5.23-13.22-9.61-2.75-4.38-4.12-10.19-4.12-17.42v-71.98Z"/>
    <path class="cls-3" d="M1051.43,112.45h28.62l65.76,102.04h-16.04l-14.02-21.97h-100.59l-13.88,21.97h-15.61l65.76-102.04ZM1108.38,180.96l-36.28-56.8h-13.3l-36.42,56.8h86Z"/>
    <path class="cls-3" d="M1161.56,112.45h92.65c13.3,0,23.51,2.72,30.64,8.17,7.13,5.45,10.69,13.23,10.69,23.34s-3.57,17.9-10.69,23.34c-7.13,5.45-17.34,8.17-30.64,8.17h-78.19v39.02h-14.45v-102.04ZM1254.21,163.9c8.58,0,15.15-1.73,19.73-5.2,4.58-3.47,6.87-8.38,6.87-14.74s-2.29-11.25-6.87-14.67c-4.58-3.42-11.15-5.13-19.73-5.13h-78.19v39.75h78.19Z"/>
  </g>
  <path class="cls-2" d="M1135.21,485.42l-4.15-4.16c94.92-13.6,175.94-33.5,247.56-60.78,17.86.01,75.35.02,95.68.02,69.54,0,77.99-.11,80.45-.2,44.67-1.23,82.97-6.74,113.8-16.37,49.19-15.36,77.81-40.97,85.06-76.13,3.44-20.7-.9-53.7-41.03-93.85l-76.36-76.34c1.96-20.49,1.21-41.62-2.22-62.8-4.63-29.19-14.99-60.23-30.8-92.3h17.32l242.92,242.91,3.64,3.66c25.69,26.65,42.25,52.51,49.2,76.85,8.15,28.55,2.98,55.17-15.37,79.12-25.34,31.08-67.19,52.2-131.68,66.39-34.91,7.57-73.68,11.99-118.5,13.51-9.5.3-19.38.45-29.36.48h0-486.14Z"/>
  <path class="cls-1" d="M1481.11,2.51h90.15l2.45,4.62c13.27,25.05,22.97,50.44,28.83,75.45,3.82,16.3,5.95,32.32,6.35,47.71L1481.11,2.51Z"/>
  <path class="cls-1" d="M1559.28,269.19c-2.37-7.43-7.2-15.19-14.41-23.17h.2l-3.42-3.46L1301.6,2.51h139.34l165.37,165.37c-5.61,35.94-21.43,70-47.03,101.31Z"/>
  <path class="cls-2" d="M1443.6,392.08c43.55-21.93,81.89-48.23,111.27-76.36,38.9-37.26,64.29-78.88,75.52-123.77l62.16,62.13c26.63,26.3,37.73,51.32,32.12,72.36-6.11,22.9-32.63,42.09-72.76,52.64h-.07c-28.21,7.78-59.28,11.84-97.86,12.82-4.71.11-9.35.17-13.8.17h-96.58Z"/>
  <path class="cls-3" d="M1070.28,420.48h216.9c-52.23,14.49-109.04,25.79-173.12,34.48l-8.19,1.1-35.59-35.58Z"/>
  <path class="cls-3" d="M1041.87,392.08l-64.9-64.89h484.11v-.05c14.58-.2,27.74-1.29,39.94-3.31-29.58,21.98-62.92,40.84-101.62,57.52-9.67,4.21-18.18,7.72-26.01,10.73h-331.51Z"/>
  <polygon class="cls-3" points="94.56 420.78 1029.02 420.78 1092.76 484.51 158.33 484.54 94.56 420.78"/>
  <polygon class="cls-3" points="65.42 391.62 1.66 327.87 936.13 327.88 999.88 391.62 65.42 391.62"/>
</svg>