<?xml version="1.0" encoding="UTF-8"?>
<svg id="Logos" xmlns="http://www.w3.org/2000/svg" viewBox="0 0 1920 484.84">
  <defs>
    <style>
      .cls-1 {
        fill: #100e1b;
      }
    </style>
  </defs>
  <g>
    <path class="cls-1" d="M1508.11,318.1c-37.37,28.94-76.42,48.92-108.61,62.79h0c-9.48,4.13-18.12,7.7-26.37,10.88h-331.86l-68.77-68.77h485.71v-.02c16.75-.14,33.55-1.44,49.91-4.86Z"/>
    <path class="cls-1" d="M1607.24,165.41c-6.23,41.31-25.11,76.48-50.02,106.06-1.81-8.8-7.51-18.65-18.1-29.44h.04c-51.95-51.96-189.12-189.12-242.88-242.88h144.7l166.26,166.26Z"/>
    <path class="cls-1" d="M1725.08,324.78c-6.29,23.56-33.26,43.23-74.01,53.95l-.13.03c-28.22,7.76-59.36,11.83-98.01,12.82-4.58.11-9.24.17-13.81.17h-104.98c46.6-22.59,87.11-49.84,118.23-79.65,39.6-37.92,64.96-80.2,75.6-125.97l1.03,1.03,63.51,63.49c27.1,26.76,38.36,52.39,32.56,74.12Z"/>
    <path class="cls-1" d="M1866.58,245.67l-3.63-3.65L1620.07-.85h-21.37c16.51,32.88,27.26,64.61,31.99,94.41,3.45,21.3,4.16,42.49,2.1,63.07l.05.05,76.8,76.77c21.76,21.77,46.39,55.55,40.37,91.77-7.04,34.14-35.15,59.32-83.46,74.41-30.58,9.55-68.61,15.02-112.98,16.24-2.78.11-14.48.2-80.16.2-20.42,0-78.43,0-95.8-.02-72.29,27.57-154.46,47.63-250.84,61.21l7.6,7.6h485.71c9.78-.02,19.57-.17,29.35-.47,39.8-1.34,79.69-5.08,118.57-13.52,52.9-11.65,102.61-30.28,132.5-66.96,40.33-52.65,12.76-109.82-33.91-158.23Z"/>
    <path class="cls-1" d="M1301.24,416.04c-55.87,16.35-117.62,29.02-186.88,38.41l-9.16,1.24-39.65-39.65h235.69Z"/>
    <path class="cls-1" d="M1609.73,133.57L1475.31-.85h96.01l3.01,5.68c13.32,25.15,23.06,50.64,28.95,75.75,4.27,18.23,6.43,35.96,6.45,52.99Z"/>
  </g>
  <g>
    <path class="cls-1" d="M159.39,212.04h-88.74c-22.55,0-39.94-4.43-52.18-13.3C6.23,189.88.11,177.31.11,161.02s6.09-28.98,18.28-37.79c12.19-8.82,29.6-13.22,52.25-13.22h88.74v27.61h-83.97c-9.93,0-17.56,2.12-22.91,6.36-5.35,4.24-8.02,10.12-8.02,17.63s2.67,13.39,8.02,17.63c5.35,4.24,12.98,6.36,22.91,6.36h44.66v-12.43h-44.66v-21.97h83.97v60.85Z"/>
    <path class="cls-1" d="M175.17,110.01h42.93v36.28h68.94v-36.28h42.93v102.04h-42.93v-37h-68.94v37h-42.93v-102.04Z"/>
    <path class="cls-1" d="M408.58,213.49c-22.64,0-40.06-4.53-52.25-13.59-12.19-9.06-18.28-22.02-18.28-38.88s6.09-29.82,18.28-38.88c12.19-9.06,29.6-13.59,52.25-13.59h33.68c22.64,0,40.06,4.53,52.25,13.59,12.19,9.06,18.28,22.02,18.28,38.88s-6.1,29.82-18.28,38.88c-12.19,9.06-29.61,13.59-52.25,13.59h-33.68ZM413.21,184.73h24.43c10.02,0,17.66-2.05,22.91-6.14,5.25-4.09,7.88-9.95,7.88-17.56s-2.65-13.59-7.95-17.63c-5.3-4.05-12.91-6.07-22.84-6.07h-24.43c-9.93,0-17.54,2.02-22.84,6.07-5.3,4.05-7.95,9.93-7.95,17.63s2.65,13.47,7.95,17.56c5.3,4.1,12.91,6.14,22.84,6.14Z"/>
    <path class="cls-1" d="M834.63,110.01v28.76h-55.21v73.27h-42.92v-73.27h-154.05c-6.37,0-9.54,2.06-9.54,6.21,0,1.82.85,3.3,2.53,4.4,1.68,1.11,4.02,1.66,7.01,1.66h44.36c15.22,0,26.86,2.61,34.91,7.81,8.04,5.2,12.07,12.77,12.07,22.69s-4.04,17.37-12.07,22.63c-8.05,5.25-19.69,7.87-34.91,7.87h-98.27v-28.76h91.2c3.07,0,5.47-.54,7.15-1.66,1.68-1.1,2.53-2.72,2.53-4.85,0-2.01-.86-3.61-2.61-4.76-1.73-1.16-4.09-1.75-7.07-1.75h-44.52c-15.13,0-26.69-2.57-34.68-7.73-8-5.15-12-12.59-12-22.32s4-17.2,12-22.41c8-5.2,19.55-7.8,34.68-7.8h259.41Z"/>
    <path class="cls-1" d="M850.39,110.01h14.45v71.54c0,6.36,2.17,11.01,6.5,13.95,4.34,2.94,11.22,4.41,20.67,4.41h85.56v12.14h-86c-9.83,0-17.78-1.01-23.85-3.04-6.07-2.02-10.48-5.23-13.22-9.61-2.75-4.38-4.12-10.19-4.12-17.42v-71.98Z"/>
    <path class="cls-1" d="M1051.28,110.01h28.62l65.76,102.04h-16.04l-14.02-21.97h-100.59l-13.88,21.97h-15.61l65.76-102.04ZM1108.23,178.51l-36.28-56.8h-13.3l-36.42,56.8h86Z"/>
    <path class="cls-1" d="M1161.41,110.01h92.64c13.3,0,23.51,2.72,30.64,8.17,7.13,5.44,10.7,13.22,10.7,23.34s-3.57,17.9-10.7,23.34c-7.13,5.44-17.34,8.17-30.64,8.17h-78.19v39.02h-14.45v-102.04ZM1254.06,161.46c8.57,0,15.15-1.73,19.73-5.2,4.58-3.47,6.87-8.38,6.87-14.74s-2.29-11.25-6.87-14.67c-4.58-3.42-11.15-5.13-19.73-5.13h-78.19v39.75h78.19Z"/>
  </g>
  <polygon class="cls-1" points="1006.3 391.14 68.38 391.14 0 322.76 937.94 322.77 1006.3 391.14"/>
  <polygon class="cls-1" points="1099.96 484.81 162.07 484.83 93.69 416.45 1031.61 416.45 1099.96 484.81"/>
</svg>