<?xml version="1.0" encoding="UTF-8"?>
<svg id="Logos" xmlns="http://www.w3.org/2000/svg" viewBox="0 0 1920 985">
  <defs>
    <style>
      .cls-1 {
        fill: #a85fed;
      }

      .cls-2 {
        fill: #99b9ff;
      }

      .cls-3 {
        fill: #f3f2f8;
      }
    </style>
  </defs>
  <path class="cls-2" d="M329.67,980.61l-8.56-8.56c191.95-27.51,355.77-67.74,500.54-122.88,36.08.02,152.3.03,193.39.03,140.31,0,157.5-.21,162.6-.4,90.26-2.49,167.66-13.62,229.98-33.09,99.38-31.04,157.2-82.78,171.84-153.8l.03-.15c6.91-41.65-1.87-108.32-82.93-189.44l-154.37-154.33c3.97-41.43,2.47-84.12-4.48-126.94-9.36-58.98-30.31-121.76-62.31-186.67h35.19l491,490.99,7.34,7.39c51.94,53.86,85.41,106.15,99.46,155.36,16.47,57.72,6.03,111.54-31.05,159.97-51.29,62.9-135.88,105.56-266.21,134.26-70.56,15.32-148.92,24.25-239.53,27.31-19.32.58-39.29.9-59.36.95h0H329.67ZM952.59,791.96c88.18-44.37,165.79-97.58,225.22-154.51,78.66-75.32,129.99-159.49,152.65-250.27l125.75,125.71c53.85,53.17,76.29,103.76,64.94,146.33-12.37,46.31-65.97,85.12-147.08,106.48l-.35.09c-56.81,15.63-119.61,23.84-197.64,25.83-9.42.23-18.8.35-27.89.35h-195.6Z"/>
  <path class="cls-3" d="M198.23,849.18h439.32c-105.74,29.35-220.77,52.27-350.6,69.87l-16.6,2.24-72.12-72.11ZM141.02,791.96L9.66,660.6h978.57v-.09c29.66-.41,56.42-2.63,81.2-6.76-59.4,44.09-128.53,83.24-205.74,116.5-19.31,8.41-36.52,15.51-52.6,21.71H141.02Z"/>
  <path class="cls-1" d="M1186.76,543.68c-4.79-15.1-14.61-30.89-29.29-47.11h.38l-6.75-6.83c-103.13-103.15-372.02-372.04-485.33-485.35h281.89l334.31,334.31c-11.35,72.7-43.37,141.61-95.21,204.98Z"/>
  <path class="cls-1" d="M1028.56,4.39h182.49l4.98,9.39c26.82,50.65,46.44,101.97,58.29,152.53,7.74,33.03,12.05,65.51,12.84,96.67L1028.56,4.39Z"/>
</svg>