<?xml version="1.0" encoding="UTF-8"?>
<svg id="Logos" xmlns="http://www.w3.org/2000/svg" viewBox="0 0 1920 985">
  <defs>
    <style>
      .cls-1 {
        fill: #a85fed;
      }

      .cls-2 {
        fill: #33c;
      }

      .cls-3 {
        fill: #100e1b;
      }
    </style>
  </defs>
  <path class="cls-2" d="M1525.01,660.25c-12.75,47.75-67.4,87.6-149.97,109.33l-.26.06c-57.18,15.73-120.29,23.97-198.6,25.97-9.29.23-18.72.35-27.99.35h-212.73c94.42-45.78,176.51-100.99,239.58-161.4,80.25-76.85,131.62-162.52,153.2-255.25l2.09,2.09,128.7,128.66c54.92,54.23,77.72,106.16,65.97,150.19ZM1811.76,499.94l-7.35-7.4L1312.23.39h-43.31c33.45,66.62,55.24,130.92,64.82,191.31,7,43.15,8.43,86.1,4.26,127.8l.09.09,155.62,155.57c44.09,44.12,93.99,112.57,81.81,185.96-14.27,69.19-71.23,120.21-169.12,150.79-61.98,19.36-139.02,30.43-228.94,32.91-5.63.22-29.34.4-162.44.4-41.37,0-158.92-.02-194.12-.03-146.5,55.87-313,96.52-508.29,124.04l15.39,15.39h984.22c19.82-.05,39.66-.35,59.48-.95,80.64-2.72,161.49-10.3,240.26-27.4,107.2-23.61,207.92-61.36,268.49-135.68,81.72-106.7,25.87-222.54-68.71-320.63Z"/>
  <path class="cls-3" d="M1085.35,646.7c-75.72,58.64-154.85,99.13-220.08,127.23h0c-19.21,8.37-36.72,15.61-53.44,22.04H139.36L0,656.6h984.22v-.05c33.93-.28,67.99-2.92,101.13-9.86ZM188.57,845.18l80.35,80.34,18.56-2.51c140.33-19.02,265.46-44.69,378.68-77.83H188.57Z"/>
  <path class="cls-1" d="M1286.23,337.3c-12.63,83.71-50.87,154.98-101.36,214.91-3.68-17.84-15.21-37.78-36.68-59.65h.08C1043,387.28,765.05,109.33,656.11.39h293.21l336.91,336.91Z"/>
  <path class="cls-1" d="M1278.22,165.4c-11.93-50.89-31.66-102.53-58.65-153.49l-6.11-11.52h-194.55l272.38,272.38c-.05-34.51-4.41-70.43-13.07-107.37Z"/>
</svg>