<?xml version="1.0" encoding="UTF-8"?>
<svg id="Logos" xmlns="http://www.w3.org/2000/svg" viewBox="0 0 1920 985">
  <defs>
    <style>
      .cls-1 {
        fill: #fff;
      }
    </style>
  </defs>
  <path class="cls-1" d="M1900.36,629.79c-14.97-52.44-49.33-106.81-102.15-161.58l-.24-.25-7.02-7.05L1330.42.39h-723.02l519.71,519.71,3.72,3.79c18.35,18.7,22.89,31.87,21.47,36.17-.43,1.29-1.45,2.9-3.11,4.73-.74.74-1.49,1.48-2.24,2.22-8.9,8.08-29.01,18.93-64.25,24.47-21.8,3.47-45.1,5.3-69.25,5.44l-5.58.04H10.95l238.53,238.53,115.89,115.89,33.24,33.24h913.37c18.37-.04,36.98-.34,55.33-.89h.15c85.26-2.88,159.32-11.35,226.53-25.94,81.64-17.98,198.36-51.93,269.14-138.78l.43-.52.41-.53c42.94-56.04,55.52-121.11,36.38-188.16ZM1222.1,45.12l5.55,10.47c24.54,46.33,42.47,93.28,53.32,139.54,7.87,33.58,11.84,66.24,11.88,97.61l-247.62-247.62h176.87ZM715.42,45.12h266.55l306.28,306.28c-11.48,76.1-46.25,140.89-92.15,195.38-3.34-16.22-13.83-34.35-33.34-54.23h.07c-95.7-95.71-348.38-348.39-447.42-447.43ZM1187.17,621.65c72.95-69.86,119.66-147.75,139.27-232.05l1.9,1.9,117,116.96c49.92,49.3,70.66,96.51,59.98,136.53-11.59,43.41-61.28,79.63-136.34,99.39l-.24.06c-51.98,14.3-109.36,21.8-180.54,23.61-8.44.21-17.01.32-25.44.32h-193.39c85.84-41.62,160.47-91.81,217.8-146.73ZM245.64,768.37l-126.69-126.69h894.75v-.04c30.85-.25,61.81-2.66,91.94-8.96-68.84,53.31-140.77,90.12-200.07,115.66-17.46,7.61-33.39,14.19-48.58,20.03H245.64ZM380.3,883.87l-16.87,2.28-73.05-73.03h434.18c-102.92,30.13-216.68,53.46-344.25,70.75ZM1828.47,790.74c-55.07,67.57-146.63,101.89-244.09,123.35-71.61,15.55-145.1,22.44-218.42,24.91-18.02.55-36.06.83-54.08.87H417.14l-13.99-13.99c177.54-25.02,328.9-61.97,462.08-112.77,32,.01,138.87.03,176.48.03,121,0,142.56-.17,147.68-.36,81.74-2.25,151.79-12.32,208.13-29.92,88.99-27.79,140.77-74.18,153.74-137.08,11.07-66.72-34.29-128.94-74.38-169.05l-141.47-141.43-.08-.08c3.79-37.9,2.49-76.95-3.87-116.18-8.71-54.9-28.52-113.35-58.93-173.92h39.37l447.43,447.42,6.68,6.72c85.98,89.17,136.76,194.48,62.46,291.48Z"/>
</svg>