<?xml version="1.0" encoding="UTF-8"?>
<svg id="Logos" xmlns="http://www.w3.org/2000/svg" viewBox="0 0 1920 985">
  <defs>
    <style>
      .cls-1, .cls-2 {
        fill: #a85fed;
      }

      .cls-3 {
        fill: #100e1b;
      }

      .cls-2 {
        opacity: .15;
      }
    </style>
  </defs>
  <g>
    <path class="cls-3" d="M1043.92,652.02c-19.79,2.17-39.75,3.3-59.69,3.4H0s140.5,140.5,140.52,140.52h671.57c17.86-6.86,38-15.25,58.13-24.08,82.56-36.2,151.97-75.84,218.05-126.99-14.34,3.3-29.63,5.49-44.36,7.15Z"/>
    <path class="cls-3" d="M950.95-.8h-294.85l487.48,487.48c1.6,1.6,3.08,3.17,4.62,4.7,21.4,22.59,32.04,38.51,36.99,61.25l.94-1.1c55.85-66.5,89.84-138.83,101.33-215.84L950.95-.8Z"/>
  </g>
  <path class="cls-1" d="M1168.49,795.74c-13.52.3-44.36.16-58.28.19,32.52-.06,49.78-.13,58.28-.19Z"/>
  <path class="cls-1" d="M1282.44,494.03c-1.71,3.15-3.49,6.29-5.29,9.41,1.8-3.12,3.56-6.26,5.29-9.41Z"/>
  <path class="cls-1" d="M1168.49,795.74c-13.52.3-44.36.16-58.28.19,32.52-.06,49.78-.13,58.28-.19Z"/>
  <path class="cls-1" d="M1282.44,494.03c-1.71,3.15-3.49,6.29-5.29,9.41,1.8-3.12,3.56-6.26,5.29-9.41Z"/>
  <path class="cls-1" d="M1168.49,795.74c-13.52.3-44.36.16-58.28.19,32.52-.06,49.78-.13,58.28-.19Z"/>
  <path class="cls-1" d="M1282.44,494.03c-1.71,3.15-3.49,6.29-5.29,9.41,1.8-3.12,3.56-6.26,5.29-9.41Z"/>
  <path class="cls-3" d="M1527.17,615.68c-7-33.26-29.82-70.06-67.32-107.62l-132.27-132.24c-2.33,10.2-5.01,20.35-8.06,30.36-.48,1.64-1.23,4.01-1.74,5.64-30.24,95.75-93.2,178.13-168.46,243.45-56.52,49-120.34,90.13-186.75,124.62-10.62,5.54-21.39,10.86-32.19,16.06,40.7-.1,211.85.25,244.85-.34,114.24-4.35,323.69-21.7,353.06-144.47,1.82-11.31,1.42-23.18-1.11-35.46Z"/>
  <polygon class="cls-1" points="290.81 946.21 290.81 946.23 290.79 946.21 290.81 946.21"/>
  <path class="cls-1" d="M1728.64,921.09c-1.56.6-3.12,1.21-4.69,1.77,1.57-.59,3.14-1.17,4.69-1.77Z"/>
  <path class="cls-1" d="M1748.48,913.05c-1.98.85-3.97,1.71-5.98,2.52,2.01-.84,4-1.67,5.98-2.52Z"/>
  <path class="cls-1" d="M1911.87,760.74c5.89-18.33,8.59-37.25,8.06-56.7.54,18.93-1.96,37.9-8.06,56.7Z"/>
  <path class="cls-1" d="M1728.64,921.09c-1.56.6-3.12,1.21-4.69,1.77,1.57-.59,3.14-1.17,4.69-1.77Z"/>
  <path class="cls-1" d="M1748.48,913.05c-1.98.85-3.97,1.71-5.98,2.52,2.01-.84,4-1.67,5.98-2.52Z"/>
  <path class="cls-1" d="M1911.87,760.74c5.89-18.33,8.59-37.25,8.06-56.7.54,18.93-1.96,37.9-8.06,56.7Z"/>
  <polygon class="cls-1" points="290.81 946.21 290.81 946.23 290.79 946.21 290.81 946.21"/>
  <polygon class="cls-1" points="290.81 946.21 290.81 946.23 290.79 946.21 290.81 946.21"/>
  <path class="cls-3" d="M674.23,842.83c-118.94,35.56-257.75,63.49-404.29,82.53l-82.53-82.53h486.82Z"/>
  <path class="cls-3" d="M1292.42,274.36L1017.26-.8h197.51c47.21,86.75,77.92,180.13,77.65,275.16Z"/>
  <g>
    <path class="cls-2" d="M962.57,779.89c-.15.09.15-.06,0,0h0Z"/>
    <path class="cls-1" d="M1267.62-.8h-52.86c101.78,184.33,113.93,385.9-29.59,553.43,8.44,46.42-36.53,78.3-96.91,92.23-66.09,51.16-135.48,90.78-218.05,126.99-21.8,9.55-42.51,18.15-62.25,25.64-173.87,65.78-336.31,100.64-538.03,127.86l41.65,41.63c185.62-25.57,367.04-68.89,513.14-125.69,16.94-6.45,34.64-13.66,53.78-21.92,17.53-7.48,34.89-15.25,51.87-23.43,10.8-5.2,21.57-10.52,32.19-16.06,66.41-34.49,129.94-75.35,186.46-124.35,75.26-65.32,138.51-147.95,168.75-243.71,3.04-10.03,7.48-25.79,9.8-36,2.1-9.19,3.9-18.43,5.39-27.75,1.57-9.67,2.83-19.58,3.83-29.34,10.33-112.86-15.29-210.74-69.18-319.53Z"/>
  </g>
  <path class="cls-3" d="M1909.38,646.61c-13.18-39.26-36-75.2-61.8-107.38-11.21-13.93-23.18-27.34-35.68-40.33l-7.49-7.53L1312.24-.8h-44.62c53.9,108.82,79.5,206.66,69.18,319.54.04.14,156.05,155.88,156.09,156.05,53.22,54.27,91.99,114.3,81.49,184.92-34.1,148.91-241.23,177.37-396.95,182.75-85.63.84-257.58.21-356.66.35-144.23,55.73-325.46,98.92-509.19,124.18l16.43,16.44h984.23c116.37-.42,233.64-9.33,346.29-39.73,76.99-20.58,160.74-55.33,213.14-114.1,19.04-21.11,32.32-44.87,40.2-68.87,12.17-36.84,9.94-77.54-2.49-114.12Z"/>
</svg>