<?xml version="1.0" encoding="UTF-8"?>
<svg id="Logos" xmlns="http://www.w3.org/2000/svg" viewBox="0 0 1920 985">
  <defs>
    <style>
      .cls-1, .cls-2, .cls-3 {
        fill: #a85fed;
      }

      .cls-2 {
        opacity: .15;
      }

      .cls-4 {
        fill: #f3f2f8;
      }

      .cls-3 {
        opacity: .3;
      }
    </style>
  </defs>
  <path class="cls-4" d="M1911.38,675.06c-5.37-65.7-42.46-134.68-110.28-205.04l-.12-.12-.11-.12-6.99-7.03L1337.78,6.67l-6.27-6.28h-720.82l36.59,36.57,482.25,482.27,3.75,3.8c17.97,18.33,24.04,32.55,22.07,38.5-3.15,9.55-27.44,26.09-71.59,33.01-22.11,3.52-45.64,5.36-69.97,5.49l-4.93.04H11.12l36.59,36.57,75.63,75.65c87.47,87.45,196.32,196.28,266.96,266.96l6.28,6.28h917.23c18.56-.04,37.24-.33,55.57-.9,34.88-.9,78.46-3.36,125.97-9.12,47.51-5.74,98.99-14.8,149.72-28.87,103.78-28.79,178.37-71.67,221.7-127.45l.04-.04.04-.05c15.19-19.82,26.73-40.9,34.3-62.67,9.07-26.13,12.51-53.5,10.23-81.37ZM1860.54,742.7c-1.26,3.6-2.64,7.2-4.16,10.73-.04.07-.07.12-.08.17-6.07,14.02-13.95,27-23.26,39.16-.92,1.14-1.85,2.26-2.81,3.37-.82.98-1.65,1.94-2.49,2.89-.88,1.03-1.79,2.05-2.7,3.05,0,.01-.01.03-.03.03-47.87,53.69-124.06,85.36-194.42,104.16-.12.04-.24.08-.36.11-102.94,27.79-210.11,35.92-316.45,36.3H414.33c-8.28-8.29-25.62-25.64-33.99-34h-.01c-75.81-75.81-189.17-189.17-265.75-265.75h899.44c18.21-.09,36.45-1.13,54.54-3.11.07-.01.12-.01.19-.03,97.07-8.68,178.8-61.77,95.11-146.77-1.41-1.41-2.76-2.84-4.22-4.3L714.16,43.24h599.62l449.77,449.77,6.84,6.88c11.44,11.86,22.36,24.13,32.61,36.85.03.04.05.07.08.11,23.57,29.41,44.22,61.77,56.27,97.65.05.13.09.25.12.37,11.72,34.89,13.63,72.56,1.08,107.83Z"/>
  <path class="cls-2" d="M1182.4,771.16c-12.36.28-40.54.15-53.26.17,29.72-.05,45.49-.12,53.26-.17Z"/>
  <path class="cls-2" d="M1286.53,495.44c-1.57,2.88-3.19,5.74-4.83,8.6,1.65-2.85,3.25-5.72,4.83-8.6Z"/>
  <path class="cls-2" d="M1182.4,771.16c-12.36.28-40.54.15-53.26.17,29.72-.05,45.49-.12,53.26-.17Z"/>
  <path class="cls-2" d="M1286.53,495.44c-1.57,2.88-3.19,5.74-4.83,8.6,1.65-2.85,3.25-5.72,4.83-8.6Z"/>
  <path class="cls-2" d="M1182.4,771.16c-12.36.28-40.54.15-53.26.17,29.72-.05,45.49-.12,53.26-.17Z"/>
  <path class="cls-2" d="M1286.53,495.44c-1.57,2.88-3.19,5.74-4.83,8.6,1.65-2.85,3.25-5.72,4.83-8.6Z"/>
  <path class="cls-3" d="M1694.29,885.71c-1.43.54-2.85,1.11-4.28,1.62,1.43-.54,2.87-1.07,4.28-1.62Z"/>
  <path class="cls-3" d="M1712.42,878.36c-1.81.78-3.63,1.56-5.46,2.3,1.83-.76,3.66-1.53,5.46-2.3Z"/>
  <path class="cls-3" d="M1694.29,885.71c-1.43.54-2.85,1.11-4.28,1.62,1.43-.54,2.87-1.07,4.28-1.62Z"/>
  <path class="cls-3" d="M1712.42,878.36c-1.81.78-3.63,1.56-5.46,2.3,1.83-.76,3.66-1.53,5.46-2.3Z"/>
  <path class="cls-4" d="M1295.65,294.69c.02,18.81-1.86,37.55-4.54,56.06L983.61,43.24h60.6l251.45,251.45Z"/>
  <g>
    <path class="cls-1" d="M994.22,756.67c-.13.08.13-.05,0,0h0Z"/>
    <path class="cls-1" d="M1272.99,43.24h-48.3c93.01,168.45,104.12,352.66-27.04,505.75,7.71,42.42-33.38,71.55-88.56,84.29-60.4,46.75-123.81,82.96-199.26,116.05-19.92,8.72-38.85,16.59-56.89,23.44-158.89,60.11-307.34,91.97-491.68,116.84l38.06,38.04c169.63-23.37,335.42-62.95,468.93-114.86,15.48-5.89,31.66-12.48,49.15-20.03,16.02-6.84,31.88-13.94,47.41-21.41,9.87-4.75,19.71-9.62,29.42-14.68,60.69-31.52,118.74-68.86,170.39-113.64,68.78-59.69,126.58-135.21,154.22-222.71,2.78-9.17,6.84-23.57,8.96-32.9,1.91-8.4,3.56-16.85,4.93-25.36,1.43-8.83,2.59-17.89,3.5-26.81,9.44-103.14-13.97-192.59-63.22-292Z"/>
  </g>
  <path class="cls-4" d="M1478.86,477.86s-142.67-142.64-142.65-142.61c-.91,8.91-2.06,17.96-3.5,26.8-1.37,8.52-3.01,16.97-4.93,25.36l120.87,120.84c34.27,34.32,55.12,67.95,61.52,98.35,2.32,11.22,2.68,22.07,1.02,32.41-26.21,111.53-218.53,128.65-322.64,132.03-68.98.65-148.59.19-223.76.31-15.53,7.47-31.38,14.58-47.41,21.41-17.49,7.55-37.27,15.52-52.75,21.41,90.63-.12,247.59.43,325.94-.32,142.4-4.98,331.43-30.85,362.74-167.01,9.38-64.34-25.94-119.52-74.47-168.99Z"/>
  <path class="cls-4" d="M242.99,771.33l42.85,42.85h444.88c41.62-12.36,86-27.48,125.99-42.85H242.99Z"/>
</svg>