<?xml version="1.0" encoding="UTF-8"?>
<svg id="Logos" xmlns="http://www.w3.org/2000/svg" xmlns:xlink="http://www.w3.org/1999/xlink" viewBox="0 0 1920 795.93">
  <defs>
    <style>
      .cls-1 {
        fill: url(#linear-gradient-4);
      }

      .cls-2 {
        fill: url(#linear-gradient-3);
      }

      .cls-3 {
        fill: url(#linear-gradient-2);
      }

      .cls-4 {
        fill: #100e1b;
      }

      .cls-5 {
        fill: url(#linear-gradient);
      }
    </style>
    <linearGradient id="linear-gradient" x1="828.38" y1="493.49" x2="1131.8" y2="51.86" gradientUnits="userSpaceOnUse">
      <stop offset=".11" stop-color="#100e1b"/>
      <stop offset=".47" stop-color="#33c"/>
      <stop offset="1" stop-color="#a85fed"/>
    </linearGradient>
    <linearGradient id="linear-gradient-2" x1="596.97" y1="261.92" x2="958.77" y2="261.92" gradientUnits="userSpaceOnUse">
      <stop offset=".09" stop-color="#100e1b"/>
      <stop offset="1" stop-color="#33c"/>
    </linearGradient>
    <linearGradient id="linear-gradient-3" x1="980.39" y1="201.93" x2="868.03" y2="-72.53" gradientUnits="userSpaceOnUse">
      <stop offset="0" stop-color="#6044d9"/>
      <stop offset=".11" stop-color="#774cdf"/>
      <stop offset=".26" stop-color="#8c54e5"/>
      <stop offset=".41" stop-color="#9c5ae9"/>
      <stop offset=".6" stop-color="#a55dec"/>
      <stop offset=".86" stop-color="#a85fed"/>
    </linearGradient>
    <linearGradient id="linear-gradient-4" x1="1047.77" y1="78.7" x2="972.27" y2="3.25" gradientUnits="userSpaceOnUse">
      <stop offset="0" stop-color="#8552e3"/>
      <stop offset="1" stop-color="#a85fed"/>
    </linearGradient>
  </defs>
  <g>
    <path class="cls-5" d="M1105.33,219.97c-4.25,15.92-22.47,29.2-49.99,36.44l-.09.02c-19.06,5.24-40.1,7.99-66.2,8.66-3.1.08-6.24.12-9.33.12h-70.91c31.48-15.26,58.84-33.67,79.87-53.8,26.75-25.62,43.88-54.18,51.07-85.09l.7.7,42.9,42.89c18.31,18.08,25.91,35.39,21.99,50.07ZM1200.92,166.53l-2.45-2.47L1034.4,0h-14.44c11.15,22.21,18.41,43.64,21.61,63.77,2.33,14.38,2.81,28.7,1.42,42.6l.03.03,51.87,51.86c14.7,14.71,31.33,37.53,27.27,61.99-4.76,23.06-23.75,40.07-56.38,50.26-20.66,6.45-46.34,10.15-76.32,10.97-1.88.07-9.78.13-54.15.13-13.79,0-52.98,0-64.71-.01-48.83,18.62-104.34,32.17-169.44,41.35l5.13,5.13h328.09c6.61-.02,13.22-.12,19.83-.32,26.88-.91,53.83-3.43,80.09-9.14,35.74-7.87,69.31-20.45,89.5-45.23,27.24-35.57,8.62-74.18-22.91-106.88Z"/>
    <path class="cls-3" d="M958.77,215.45c-25.24,19.55-51.62,33.04-73.36,42.41h0c-6.4,2.79-12.24,5.2-17.81,7.35h-224.17l-46.46-46.46h328.09v-.02c11.31-.09,22.66-.97,33.71-3.29ZM659.83,281.61l26.79,26.78,6.19-.84c46.78-6.34,88.49-14.9,126.23-25.94h-159.21Z"/>
    <path class="cls-2" d="M1025.73,112.31c-4.21,27.9-16.96,51.66-33.79,71.64-1.23-5.95-5.07-12.6-12.23-19.89h.03c-35.09-35.1-127.75-127.75-164.06-164.07h97.74l112.31,112.31Z"/>
    <path class="cls-1" d="M1023.06,55.01c-3.98-16.96-10.56-34.18-19.55-51.17l-2.04-3.84h-64.85l90.8,90.8c-.02-11.5-1.47-23.48-4.36-35.79Z"/>
  </g>
  <g>
    <g>
      <path class="cls-4" d="M236.09,637.24H104.55c-33.42,0-59.2-6.57-77.34-19.71C9.07,604.39,0,585.75,0,561.61s9.03-42.95,27.1-56.02c18.07-13.07,43.88-19.6,77.45-19.6h131.54v40.92h-124.47c-14.71,0-26.03,3.14-33.96,9.43-7.93,6.29-11.89,15-11.89,26.14s3.96,19.85,11.89,26.14c7.93,6.29,19.24,9.43,33.96,9.43h66.2v-18.42h-66.2v-32.56h124.47v90.19Z"/>
      <path class="cls-4" d="M259.48,485.99h63.63v53.77h102.19v-53.77h63.63v151.25h-63.63v-54.84h-102.19v54.84h-63.63v-151.25Z"/>
      <path class="cls-4" d="M605.48,639.38c-33.57,0-59.38-6.71-77.45-20.14-18.07-13.42-27.1-32.63-27.1-57.63s9.03-44.2,27.1-57.63c18.07-13.42,43.88-20.14,77.45-20.14h49.92c33.56,0,59.38,6.71,77.45,20.14,18.07,13.43,27.1,32.64,27.1,57.63s-9.03,44.21-27.1,57.63c-18.07,13.43-43.89,20.14-77.45,20.14h-49.92ZM612.33,596.75h36.21c14.85,0,26.17-3.03,33.96-9.11,7.78-6.07,11.68-14.75,11.68-26.03s-3.93-20.14-11.78-26.14c-7.86-6-19.14-9-33.85-9h-36.21c-14.71,0-26,3-33.85,9-7.86,6-11.78,14.71-11.78,26.14s3.93,19.96,11.78,26.03c7.85,6.07,19.14,9.11,33.85,9.11Z"/>
      <path class="cls-4" d="M1237.01,485.99v42.63h-81.84v108.6h-63.62v-108.6h-228.35c-9.43,0-14.14,3.06-14.14,9.21,0,2.7,1.26,4.9,3.75,6.53,2.49,1.65,5.96,2.46,10.39,2.46h65.76c22.57,0,39.82,3.86,51.75,11.57,11.91,7.71,17.89,18.93,17.89,33.63s-5.98,25.75-17.89,33.54c-11.93,7.78-29.19,11.67-51.75,11.67h-145.67v-42.63h135.18c4.56,0,8.1-.81,10.6-2.46,2.49-1.63,3.75-4.03,3.75-7.18,0-2.98-1.28-5.35-3.86-7.05-2.57-1.73-6.06-2.59-10.48-2.59h-65.99c-22.43,0-39.56-3.81-51.41-11.46-11.85-7.63-17.78-18.66-17.78-33.09s5.93-25.49,17.78-33.22c11.85-7.71,28.98-11.55,51.41-11.55h384.52Z"/>
      <path class="cls-4" d="M1260.36,485.99h21.42v106.05c0,9.43,3.21,16.32,9.64,20.67,6.43,4.36,16.64,6.53,30.64,6.53h126.83v18h-127.47c-14.57,0-26.35-1.5-35.35-4.5-9-3-15.53-7.75-19.6-14.25-4.07-6.5-6.11-15.1-6.11-25.82v-106.69Z"/>
      <path class="cls-4" d="M1558.15,485.99h42.42l97.48,151.25h-23.78l-20.78-32.56h-149.11l-20.57,32.56h-23.14l97.48-151.25ZM1642.56,587.53l-53.77-84.2h-19.71l-53.99,84.2h127.47Z"/>
      <path class="cls-4" d="M1721.4,485.99h137.33c19.71,0,34.85,4.04,45.42,12.1,10.57,8.07,15.85,19.6,15.85,34.6s-5.29,26.53-15.85,34.6c-10.57,8.07-25.71,12.1-45.42,12.1h-115.9v57.84h-21.42v-151.25ZM1858.73,562.25c12.71,0,22.46-2.57,29.24-7.71,6.78-5.14,10.18-12.43,10.18-21.85s-3.39-16.67-10.18-21.75c-6.79-5.07-16.53-7.61-29.24-7.61h-115.9v58.92h115.9Z"/>
    </g>
    <g>
      <path class="cls-4" d="M766.06,795.05v-7.87h-.22c-.93,2.65-2.68,4.77-5.26,6.36-2.57,1.59-5.85,2.39-9.82,2.39-4.22,0-7.88-1-10.99-3.01-3.11-2.01-5.51-4.99-7.21-8.93-1.69-3.94-2.54-8.81-2.54-14.59s.85-10.65,2.54-14.59c1.69-3.94,4.12-6.92,7.28-8.93,3.16-2.01,6.9-3.01,11.21-3.01s8.06,1.01,11.1,3.01c3.04,2.01,5.32,4.66,6.84,7.94l-3.6,2.13c-1.23-2.84-3.08-5.07-5.55-6.69-2.48-1.62-5.4-2.43-8.79-2.43s-6.15.76-8.6,2.28c-2.45,1.52-4.35,3.74-5.7,6.65-1.35,2.92-2.02,6.41-2.02,10.48v6.25c0,4.07.67,7.56,2.02,10.48,1.35,2.92,3.27,5.15,5.77,6.69,2.5,1.54,5.46,2.32,8.9,2.32,2.6,0,4.99-.45,7.17-1.36,2.18-.91,3.93-2.29,5.26-4.15,1.32-1.86,1.99-4.19,1.99-6.99v-6.18h-11.98v-3.82h16.32v25.59h-4.12Z"/>
      <path class="cls-4" d="M812.38,795.93c-4.36,0-8.11-1-11.25-3.01-3.14-2.01-5.55-4.99-7.24-8.93-1.69-3.94-2.54-8.81-2.54-14.59s.85-10.65,2.54-14.59c1.69-3.94,4.1-6.92,7.24-8.93,3.14-2.01,6.89-3.01,11.25-3.01s8.04,1.01,11.18,3.01c3.14,2.01,5.55,4.99,7.24,8.93,1.69,3.95,2.54,8.81,2.54,14.59s-.85,10.65-2.54,14.59c-1.69,3.95-4.11,6.92-7.24,8.93-3.14,2.01-6.86,3.01-11.18,3.01ZM812.38,791.96c3.28,0,6.14-.76,8.57-2.28,2.43-1.52,4.31-3.72,5.66-6.62,1.35-2.89,2.02-6.37,2.02-10.44v-6.47c0-4.07-.67-7.55-2.02-10.44-1.35-2.89-3.23-5.1-5.66-6.62-2.43-1.52-5.28-2.28-8.57-2.28s-6.15.76-8.6,2.28c-2.45,1.52-4.35,3.73-5.7,6.62-1.35,2.89-2.02,6.37-2.02,10.44v6.47c0,4.07.67,7.55,2.02,10.44,1.35,2.89,3.25,5.1,5.7,6.62,2.45,1.52,5.32,2.28,8.6,2.28Z"/>
      <path class="cls-4" d="M889.06,795.05h-4.41v-51.32h20.15c2.99,0,5.5.59,7.54,1.76,2.03,1.18,3.58,2.83,4.63,4.96,1.05,2.13,1.58,4.67,1.58,7.61s-.53,5.49-1.58,7.65c-1.05,2.16-2.6,3.82-4.63,5-2.03,1.18-4.55,1.76-7.54,1.76h-15.73v22.57ZM889.06,747.63v20.95h15.73c1.96,0,3.61-.38,4.96-1.14,1.35-.76,2.35-1.79,3.01-3.09.66-1.3.99-2.81.99-4.52v-3.53c0-1.67-.33-3.16-.99-4.48s-1.67-2.35-3.01-3.09c-1.35-.73-3-1.1-4.96-1.1h-15.73Z"/>
      <path class="cls-4" d="M939.42,743.73h4.41v31.69c0,3.82.4,6.95,1.21,9.37.81,2.43,2.19,4.23,4.15,5.4,1.96,1.18,4.61,1.76,7.94,1.76s5.97-.59,7.9-1.76c1.94-1.18,3.32-2.98,4.15-5.4.83-2.43,1.25-5.55,1.25-9.37v-31.69h4.41v30.73c0,5-.56,9.09-1.69,12.28-1.13,3.19-3,5.51-5.62,6.99-2.62,1.47-6.14,2.21-10.55,2.21s-7.83-.73-10.4-2.21c-2.57-1.47-4.41-3.8-5.51-6.99-1.1-3.19-1.65-7.28-1.65-12.28v-30.73Z"/>
      <path class="cls-4" d="M1004.42,772.33v22.72h-4.41v-51.32h20.15c2.89,0,5.37.56,7.43,1.69,2.06,1.13,3.63,2.76,4.71,4.89,1.08,2.13,1.62,4.69,1.62,7.68,0,3.92-.97,7.12-2.9,9.59-1.94,2.48-4.74,3.96-8.42,4.45l12.65,23.01h-5l-12.2-22.72h-13.6ZM1004.42,768.58h15.73c1.96,0,3.61-.38,4.96-1.14,1.35-.76,2.35-1.79,3.01-3.09.66-1.3.99-2.81.99-4.52v-3.53c0-1.67-.33-3.16-.99-4.48s-1.67-2.35-3.01-3.09c-1.35-.73-3-1.1-4.96-1.1h-15.73v20.95Z"/>
      <path class="cls-4" d="M1062.21,795.05h-4.41v-51.32h20.15c2.99,0,5.5.59,7.54,1.76,2.03,1.18,3.58,2.83,4.63,4.96,1.05,2.13,1.58,4.67,1.58,7.61s-.53,5.49-1.58,7.65c-1.05,2.16-2.6,3.82-4.63,5-2.03,1.18-4.55,1.76-7.54,1.76h-15.73v22.57ZM1062.21,747.63v20.95h15.73c1.96,0,3.61-.38,4.96-1.14,1.35-.76,2.35-1.79,3.01-3.09.66-1.3.99-2.81.99-4.52v-3.53c0-1.67-.33-3.16-.99-4.48s-1.67-2.35-3.01-3.09c-1.35-.73-3-1.1-4.96-1.1h-15.73Z"/>
      <path class="cls-4" d="M1140.07,795.05h-27.06v-51.32h4.41v47.42h22.64v3.9Z"/>
      <path class="cls-4" d="M1190.13,795.05h-30v-51.32h30v3.9h-25.59v19.48h24.34v3.9h-24.34v20.14h25.59v3.9Z"/>
    </g>
  </g>
</svg>