<?xml version="1.0" encoding="UTF-8"?>
<svg id="Logos" xmlns="http://www.w3.org/2000/svg" viewBox="0 0 1920 155.54">
  <path d="M236.09,153.39H104.55c-33.42,0-59.2-6.57-77.34-19.71C9.07,120.55,0,101.91,0,77.77S9.03,34.81,27.1,21.75C45.17,8.68,70.98,2.14,104.55,2.14h131.54v40.92h-124.47c-14.71,0-26.03,3.14-33.96,9.43-7.93,6.29-11.89,15-11.89,26.14s3.96,19.85,11.89,26.14c7.93,6.29,19.24,9.43,33.96,9.43h66.2v-18.42h-66.2v-32.56h124.47v90.19Z"/>
  <path d="M259.48,2.14h63.63v53.77h102.19V2.14h63.63v151.25h-63.63v-54.84h-102.19v54.84h-63.63V2.14Z"/>
  <path d="M605.48,155.54c-33.57,0-59.38-6.71-77.45-20.14-18.07-13.42-27.1-32.63-27.1-57.63s9.03-44.2,27.1-57.63c18.07-13.42,43.88-20.14,77.45-20.14h49.92c33.56,0,59.38,6.71,77.45,20.14,18.07,13.43,27.1,32.64,27.1,57.63s-9.03,44.21-27.1,57.63c-18.07,13.43-43.89,20.14-77.45,20.14h-49.92ZM612.33,112.9h36.21c14.85,0,26.17-3.03,33.96-9.11,7.78-6.07,11.68-14.75,11.68-26.03s-3.93-20.14-11.78-26.14c-7.86-6-19.14-9-33.85-9h-36.21c-14.71,0-26,3-33.85,9-7.86,6-11.78,14.71-11.78,26.14s3.93,19.96,11.78,26.03c7.85,6.07,19.14,9.11,33.85,9.11Z"/>
  <path d="M1237.01,2.15v42.63h-81.84v108.6h-63.62V44.78h-228.35c-9.43,0-14.14,3.06-14.14,9.21,0,2.7,1.26,4.9,3.75,6.53,2.49,1.65,5.96,2.46,10.39,2.46h65.76c22.57,0,39.82,3.86,51.75,11.57,11.91,7.71,17.89,18.93,17.89,33.63s-5.98,25.75-17.89,33.54c-11.93,7.78-29.19,11.67-51.75,11.67h-145.67v-42.63h135.18c4.56,0,8.1-.81,10.6-2.46,2.49-1.63,3.75-4.03,3.75-7.18,0-2.98-1.28-5.35-3.86-7.05-2.57-1.73-6.06-2.59-10.48-2.59h-65.99c-22.43,0-39.56-3.81-51.41-11.46-11.85-7.63-17.78-18.66-17.78-33.09s5.93-25.49,17.78-33.22c11.85-7.71,28.98-11.55,51.41-11.55h384.52Z"/>
  <path d="M1260.36,2.14h21.42v106.05c0,9.43,3.21,16.32,9.64,20.67,6.43,4.36,16.64,6.53,30.64,6.53h126.83v18h-127.47c-14.57,0-26.35-1.5-35.35-4.5-9-3-15.53-7.75-19.6-14.25-4.07-6.5-6.11-15.1-6.11-25.82V2.14Z"/>
  <path d="M1558.15,2.14h42.42l97.48,151.25h-23.78l-20.78-32.56h-149.11l-20.57,32.56h-23.14L1558.15,2.14ZM1642.56,103.69l-53.77-84.2h-19.71l-53.99,84.2h127.47Z"/>
  <path d="M1721.4,2.14h137.33c19.71,0,34.85,4.04,45.42,12.1,10.57,8.07,15.85,19.6,15.85,34.6s-5.29,26.53-15.85,34.6c-10.57,8.07-25.71,12.1-45.42,12.1h-115.9v57.84h-21.42V2.14ZM1858.73,78.41c12.71,0,22.46-2.57,29.24-7.71,6.78-5.14,10.18-12.43,10.18-21.85s-3.39-16.67-10.18-21.75c-6.79-5.07-16.53-7.61-29.24-7.61h-115.9v58.92h115.9Z"/>
</svg>