<?xml version="1.0" encoding="UTF-8"?>
<svg id="Logos" xmlns="http://www.w3.org/2000/svg" xmlns:xlink="http://www.w3.org/1999/xlink" viewBox="0 0 1920 155.55">
  <defs>
    <style>
      .cls-1 {
        fill: #100e1b;
      }

      .cls-2 {
        fill: url(#linear-gradient);
      }
    </style>
    <linearGradient id="linear-gradient" x1="0" y1="77.78" x2="1237.01" y2="77.78" gradientUnits="userSpaceOnUse">
      <stop offset="0" stop-color="#33c"/>
      <stop offset="1" stop-color="#a85fed"/>
    </linearGradient>
  </defs>
  <path class="cls-2" d="M236.09,153.4H104.55c-33.42,0-59.2-6.57-77.34-19.71C9.07,120.55,0,101.92,0,77.78S9.03,34.82,27.1,21.75C45.17,8.69,70.98,2.15,104.55,2.15h131.54v40.92h-124.47c-14.71,0-26.03,3.14-33.96,9.43-7.93,6.29-11.89,15-11.89,26.14s3.96,19.85,11.89,26.14c7.93,6.29,19.24,9.43,33.96,9.43h66.2v-18.42h-66.2v-32.56h124.47v90.19ZM259.48,2.15h63.63v53.77h102.19V2.15h63.63v151.25h-63.63v-54.84h-102.19v54.84h-63.63V2.15ZM605.48,155.55c-33.57,0-59.38-6.71-77.45-20.14-18.07-13.42-27.1-32.63-27.1-57.63s9.03-44.2,27.1-57.63C546.1,6.72,571.91,0,605.48,0h49.92c33.56,0,59.38,6.71,77.45,20.14,18.07,13.43,27.1,32.64,27.1,57.63s-9.03,44.21-27.1,57.63c-18.07,13.43-43.89,20.14-77.45,20.14h-49.92ZM612.33,112.91h36.21c14.85,0,26.17-3.03,33.96-9.11,7.78-6.07,11.68-14.75,11.68-26.03s-3.93-20.14-11.78-26.14c-7.86-6-19.14-9-33.85-9h-36.21c-14.71,0-26,3-33.85,9-7.86,6-11.78,14.71-11.78,26.14s3.93,19.96,11.78,26.03c7.85,6.07,19.14,9.11,33.85,9.11ZM852.49,2.16c-22.43,0-39.56,3.84-51.41,11.55-11.85,7.73-17.78,18.79-17.78,33.22s5.93,25.45,17.78,33.09c11.85,7.65,28.98,11.46,51.41,11.46h65.99c4.43,0,7.92.86,10.48,2.59,2.59,1.71,3.86,4.07,3.86,7.05,0,3.15-1.26,5.55-3.75,7.18-2.49,1.65-6.04,2.46-10.6,2.46h-135.18v42.63h145.67c22.57,0,39.82-3.88,51.75-11.67,11.91-7.78,17.89-18.96,17.89-33.54s-5.98-25.92-17.89-33.63c-11.93-7.71-29.19-11.57-51.75-11.57h-65.76c-4.43,0-7.9-.81-10.39-2.46-2.49-1.63-3.75-3.83-3.75-6.53,0-6.15,4.71-9.21,14.14-9.21h228.35v108.6h63.62V44.79h81.84V2.16h-384.52Z"/>
  <path class="cls-1" d="M1260.36,2.15h21.42v106.05c0,9.43,3.21,16.32,9.64,20.67,6.43,4.36,16.64,6.53,30.64,6.53h126.83v18h-127.47c-14.57,0-26.35-1.5-35.35-4.5-9-3-15.53-7.75-19.6-14.25-4.07-6.5-6.11-15.1-6.11-25.82V2.15Z"/>
  <path class="cls-1" d="M1558.15,2.15h42.42l97.48,151.25h-23.78l-20.78-32.56h-149.11l-20.57,32.56h-23.14L1558.15,2.15ZM1642.56,103.7l-53.77-84.2h-19.71l-53.99,84.2h127.47Z"/>
  <path class="cls-1" d="M1721.4,2.15h137.33c19.71,0,34.85,4.04,45.42,12.1,10.57,8.07,15.85,19.6,15.85,34.6s-5.29,26.53-15.85,34.6c-10.57,8.07-25.71,12.1-45.42,12.1h-115.9v57.84h-21.42V2.15ZM1858.73,78.42c12.71,0,22.46-2.57,29.24-7.71,6.78-5.14,10.18-12.43,10.18-21.85s-3.39-16.67-10.18-21.75c-6.79-5.07-16.53-7.61-29.24-7.61h-115.9v58.92h115.9Z"/>
</svg>