<?xml version="1.0" encoding="UTF-8"?>
<svg id="Logos" xmlns="http://www.w3.org/2000/svg" viewBox="0 0 1920 155.56">
  <defs>
    <style>
      .cls-1 {
        fill: #fff;
      }
    </style>
  </defs>
  <path class="cls-1" d="M232.69,153.4H103.28c-33,0-58.46-6.57-76.39-19.71C8.96,120.55,0,101.91,0,77.77S8.93,34.81,26.78,21.74C44.64,8.67,70.13,2.13,103.28,2.13h129.42v35.78h-124.06c-17.14,0-30.39,3.57-39.75,10.71-9.36,7.14-14.03,17.07-14.03,29.78s4.68,22.64,14.03,29.78c9.35,7.14,22.6,10.71,39.75,10.71h75.21v-24.64h-75.21v-29.78h124.06v88.92Z"/>
  <path class="cls-1" d="M260.73,2.18h52.92v56.57h117.42V2.18h53.14v151.27h-53.14v-57.85h-117.42v57.85h-52.92V2.18Z"/>
  <path class="cls-1" d="M729.21,135.41c-17.86,13.43-43.43,20.14-76.71,20.14h-48.21c-33.28,0-58.82-6.71-76.6-20.14-17.78-13.42-26.68-32.64-26.68-57.64s8.89-44.39,26.68-57.74c17.78-13.35,43.31-20.03,76.6-20.03h48.21c33.28,0,58.85,6.68,76.71,20.03,17.85,13.36,26.78,32.61,26.78,57.74s-8.93,44.21-26.78,57.64ZM569.69,108.2c9.07,7,22.25,10.5,39.53,10.5h38.57c17.43,0,30.67-3.5,39.75-10.5,9.07-7,13.61-17.14,13.61-30.43s-4.57-23.43-13.71-30.43c-9.14-7-22.36-10.5-39.64-10.5h-38.57c-17.29,0-30.46,3.5-39.53,10.5-9.07,7-13.61,17.14-13.61,30.43s4.53,23.43,13.61,30.43Z"/>
  <path class="cls-1" d="M1233.35,2.15v36.83h-85.26v114.44h-53.13V38.98h-237.99c-13.73,0-20.59,4.15-20.59,12.44,0,3.71,1.78,6.63,5.37,8.79,3.56,2.13,8.65,3.21,15.22,3.21h66.63c22.14,0,39.02,3.86,50.68,11.57,11.63,7.71,17.47,18.84,17.47,33.42s-5.84,25.7-17.47,33.44c-11.65,7.71-28.54,11.57-50.68,11.57h-142.07v-36.86h134.57c6.72,0,11.86-1.14,15.42-3.42,3.56-2.31,5.37-5.52,5.37-9.67s-1.84-7.33-5.46-9.64c-3.65-2.28-8.76-3.42-15.33-3.42h-66.63c-22,0-38.82-3.74-50.47-11.25-11.63-7.51-17.47-18.4-17.47-32.68s5.84-25.24,17.47-32.89c11.65-7.62,28.48-11.45,50.47-11.45h383.89Z"/>
  <path class="cls-1" d="M1258.38,2.14h21.43v106.06c0,9.43,3.21,16.32,9.64,20.68,6.43,4.36,16.64,6.53,30.64,6.53h126.84v18h-127.49c-14.57,0-26.35-1.5-35.35-4.5-9-3-15.53-7.75-19.6-14.25-4.07-6.5-6.11-15.11-6.11-25.82V2.14Z"/>
  <path class="cls-1" d="M1556.2,2.14h42.42l97.49,151.27h-23.78l-20.78-32.57h-149.13l-20.57,32.57h-23.14L1556.2,2.14ZM1640.62,103.7l-53.78-84.21h-19.71l-53.99,84.21h127.49Z"/>
  <path class="cls-1" d="M1719.47,2.14h137.34c19.71,0,34.85,4.04,45.42,12.11,10.57,8.07,15.85,19.61,15.85,34.6s-5.29,26.54-15.85,34.6c-10.57,8.07-25.71,12.11-45.42,12.11h-115.92v57.85h-21.43V2.14ZM1856.81,78.42c12.71,0,22.46-2.57,29.25-7.71,6.78-5.14,10.18-12.43,10.18-21.85s-3.4-16.68-10.18-21.75c-6.79-5.07-16.53-7.61-29.25-7.61h-115.92v58.92h115.92Z"/>
</svg>